<?xml version="1.0" standalone="no"?><!DOCTYPE svg PUBLIC "-//W3C//DTD SVG 1.1//EN" "http://www.w3.org/Graphics/SVG/1.1/DTD/svg11.dtd"><svg t="1542871034325" class="icon" style="" viewBox="0 0 1024 1024" version="1.1" xmlns="http://www.w3.org/2000/svg" p-id="1038" xmlns:xlink="http://www.w3.org/1999/xlink" width="200" height="200"><defs><style type="text/css"></style></defs><path d="M360.542569 1023.943168a274.328338 274.328338 0 0 1 215.961816-266.769675 38.247974 38.247974 0 0 0 18.754578-36.997669c-63.936064-28.416028-90.931291-112.300144-90.931291-190.046398 0-103.377511 61.60595-188.852925 159.641248-188.852925s159.641248 85.248085 159.641248 188.852925c0 77.859918-27.222555 161.971362-91.329116 190.160062a36.48618 36.48618 0 0 0 20.459541 36.884005 271.770896 271.770896 0 0 1 214.541014 266.769675H360.542569zM663.855256 284.614941C565.819958 284.614941 449.086913 346.675547 449.086913 530.356754c0 77.746254-0.511489 161.744034 63.424576 190.046398-2.330114 17.049617-2.727939 19.322899-14.094351 19.3229a291.718948 291.718948 0 0 0-193.228993 284.160284h-193.228993a56.036408 56.036408 0 0 1-55.127095-56.832057V56.832057a56.036408 56.036408 0 0 1 55.127095-56.832057h661.809302a56.036408 56.036408 0 0 1 55.127095 56.832057v305.358641A206.186702 206.186702 0 0 0 663.855256 284.614941zM195.104451 455.111111H332.979021a28.416028 28.416028 0 0 0 0-56.832057H195.104451a28.416028 28.416028 0 0 0 0 56.832057z m0-113.664114h193.228993a28.416028 28.416028 0 0 0 0-56.832056h-193.228993a28.416028 28.416028 0 0 0 0 56.832056z m303.312687-170.49617H195.104451a28.416028 28.416028 0 0 0 0 56.832057h303.312687a28.586525 28.586525 0 0 0 0-57.173049z" p-id="1039"></path></svg>
