<?xml version="1.0" standalone="no"?><!DOCTYPE svg PUBLIC "-//W3C//DTD SVG 1.1//EN" "http://www.w3.org/Graphics/SVG/1.1/DTD/svg11.dtd"><svg t="1540028046245" class="icon" style="" viewBox="0 0 1024 1024" version="1.1" xmlns="http://www.w3.org/2000/svg" p-id="905" xmlns:xlink="http://www.w3.org/1999/xlink" width="200" height="200"><defs><style type="text/css"></style></defs><path d="M896 645.12l-138.24-163.84H844.8c-12.8-194.56-174.08-348.16-368.64-348.16-202.24 0-368.64 168.96-368.64 376.32s166.4 376.32 368.64 376.32c74.24 0 145.92-23.04 207.36-66.56 23.04-17.92 58.88-10.24 74.24 12.8 17.92 23.04 10.24 58.88-12.8 74.24-79.36 56.32-171.52 84.48-268.8 84.48C215.04 990.72 0 773.12 0 509.44S215.04 25.6 476.16 25.6c248.32 0 455.68 212.48 478.72 455.68H1024l-128 163.84zM327.68 307.2c-7.68-17.92-2.56-33.28 17.92-46.08 20.48-10.24 35.84-7.68 48.64 12.8l97.28 153.6 99.84-153.6c12.8-17.92 28.16-23.04 46.08-15.36 20.48 7.68 25.6 25.6 17.92 48.64l-99.84 151.04H640c7.68 7.68 12.8 15.36 12.8 25.6s-5.12 20.48-12.8 25.6h-107.52v43.52H640c7.68 7.68 12.8 15.36 12.8 25.6s-5.12 20.48-12.8 25.6h-107.52v110.08c2.56 30.72-10.24 48.64-38.4 48.64s-43.52-15.36-40.96-48.64v-110.08h-107.52c-10.24-5.12-15.36-15.36-15.36-25.6 0-12.8 5.12-20.48 15.36-25.6h107.52v-43.52h-104.96c-10.24-7.68-15.36-15.36-15.36-25.6s5.12-20.48 15.36-25.6h81.92l-102.4-151.04z" fill="#bfcbd9" p-id="906"></path></svg>