<?xml version="1.0" standalone="no"?><!DOCTYPE svg PUBLIC "-//W3C//DTD SVG 1.1//EN" "http://www.w3.org/Graphics/SVG/1.1/DTD/svg11.dtd"><svg t="1540027564220" class="icon" style="" viewBox="0 0 1024 1024" version="1.1" xmlns="http://www.w3.org/2000/svg" p-id="3096" xmlns:xlink="http://www.w3.org/1999/xlink" width="200" height="200"><defs><style type="text/css"></style></defs><path d="M959.358976 854.22592c0 12.484608-2.132992 24.1408-6.404096 34.980864-4.271104 10.83904-10.346496 20.363264-18.2272 28.575744-7.883776 8.214528-17.084416 14.618624-27.594752 19.213312-10.50624 4.599808-22.003712 6.897664-34.48832 6.897664L157.264896 943.893504c-12.479488 0-24.305664-2.297856-35.474432-6.897664-11.164672-4.594688-21.0176-10.998784-29.558784-19.213312-8.542208-8.213504-15.276032-17.737728-20.199424-28.575744-4.929536-10.840064-7.391232-22.49728-7.391232-34.980864L64.641024 362.522624c0-24.958976 8.700928-46.144512 26.109952-63.553536 17.409024-17.408 38.59456-26.115072 63.558656-26.115072l715.380736 0c24.964096 0 46.149632 8.707072 63.558656 26.115072 17.409024 17.409024 26.109952 38.59456 26.109952 63.553536l0 134.013952L735.680512 496.536576c-24.964096 0-46.149632 8.538112-63.558656 25.617408-17.409024 17.08032-26.109952 38.100992-26.109952 63.065088 0.658432 17.079296 4.271104 32.190464 10.840064 45.328384 5.25312 11.168768 13.959168 21.3504 26.109952 30.544896 12.15488 9.19552 29.728768 13.795328 52.718592 13.795328l223.678464 0L959.358976 854.22592 959.358976 854.22592zM825.34912 227.526656 377.988096 227.526656c35.474432-18.390016 68.97664-36.127744 100.507648-53.20704 27.590656-14.45376 54.856704-28.906496 81.789952-43.359232 26.932224-14.44864 47.95392-25.617408 63.064064-33.502208 22.990848-12.479488 43.518976-18.230272 61.586432-17.24416 18.061312 0.986112 33.33632 4.10624 45.815808 9.35936 14.45376 7.226368 26.937344 16.750592 37.448704 28.577792L825.34912 227.526656zM691.340288 585.219072c0-12.479488 4.27008-22.989824 12.808192-31.533056 8.543232-8.538112 19.053568-12.808192 31.533056-12.808192 12.479488 0 22.989824 4.27008 31.533056 12.808192 8.538112 8.542208 12.808192 19.053568 12.808192 31.533056s-4.27008 23.154688-12.808192 32.0256c-8.543232 8.865792-19.053568 13.302784-31.533056 13.302784-12.479488 0-22.989824-4.435968-31.533056-13.302784C695.610368 608.37376 691.340288 597.69856 691.340288 585.219072L691.340288 585.219072zM691.340288 585.219072" p-id="3097"></path></svg>